HIERARCHY
ROOT Hips
{
	OFFSET 0.00000 0.00000 0.00000
	CHANNELS 6 Xposition Yposition Zposition Zrotation Yrotation Xrotation 
	JOINT LHipJoint
	{
		OFFSET 0 0 0
		CHANNELS 3 Zrotation Yrotation Xrotation
		JOINT LeftUpLeg
		{
			OFFSET 1.84395 -1.68683 0.74144
			CHANNELS 3 Zrotation Yrotation Xrotation
			JOINT LeftLeg
			{
				OFFSET 2.27037 -6.23779 0.00000
				CHANNELS 3 Zrotation Yrotation Xrotation
				JOINT LeftFoot
				{
					OFFSET 2.56918 -7.05877 0.00000
					CHANNELS 3 Zrotation Yrotation Xrotation
					JOINT LeftToeBase
					{
						OFFSET 0.22276 -0.61202 1.71784
						CHANNELS 3 Zrotation Yrotation Xrotation
						End Site
						{
							OFFSET 0.00000 -0.00000 0.91613
						}
					}
				}
			}
		}
	}
	JOINT RHipJoint
	{
		OFFSET 0 0 0
		CHANNELS 3 Zrotation Yrotation Xrotation
		JOINT RightUpLeg
		{
			OFFSET -1.76833 -1.68684 0.74144
			CHANNELS 3 Zrotation Yrotation Xrotation
			JOINT RightLeg
			{
				OFFSET -2.49360 -6.85110 0.00000
				CHANNELS 3 Zrotation Yrotation Xrotation
				JOINT RightFoot
				{
					OFFSET -2.55538 -7.02085 0.00000
					CHANNELS 3 Zrotation Yrotation Xrotation
					JOINT RightToeBase
					{
						OFFSET -0.21516 -0.59115 1.68050
						CHANNELS 3 Zrotation Yrotation Xrotation
						End Site
						{
							OFFSET -0.00000 -0.00000 0.89604
						}
					}
				}
			}
		}
	}
	JOINT LowerBack
	{
		OFFSET 0 0 0
		CHANNELS 3 Zrotation Yrotation Xrotation
		JOINT Spine
		{
			OFFSET 0.06382 1.72312 -0.19613
			CHANNELS 3 Zrotation Yrotation Xrotation
			JOINT Spine1
			{
				OFFSET -0.00055 1.73507 0.23859
				CHANNELS 3 Zrotation Yrotation Xrotation
				JOINT Neck
				{
					OFFSET 0 0 0
					CHANNELS 3 Zrotation Yrotation Xrotation
					JOINT Neck1
					{
						OFFSET 0.03638 1.65562 0.09633
						CHANNELS 3 Zrotation Yrotation Xrotation
						JOINT Head
						{
							OFFSET 0.06388 1.62807 -0.32386
							CHANNELS 3 Zrotation Yrotation Xrotation
							End Site
							{
								OFFSET 0.00995 1.67644 -0.12021
							}
						}
					}
				}
				JOINT LeftShoulder
				{
					OFFSET 0 0 0
					CHANNELS 3 Zrotation Yrotation Xrotation
					JOINT LeftArm
					{
						OFFSET 3.09648 1.42991 0.28122
						CHANNELS 3 Zrotation Yrotation Xrotation
						JOINT LeftForeArm
						{
							OFFSET 5.11878 -0.00000 -0.00000
							CHANNELS 3 Zrotation Yrotation Xrotation
							JOINT LeftHand
							{
								OFFSET 3.59971 -0.00000 0.00000
								CHANNELS 3 Zrotation Yrotation Xrotation
								JOINT LeftFingerBase
								{
									OFFSET 0 0 0
									CHANNELS 3 Zrotation Yrotation Xrotation
									JOINT LeftHandIndex1
									{
										OFFSET 0.62877 -0.00000 0.00000
										CHANNELS 3 Zrotation Yrotation Xrotation
										End Site
										{
											OFFSET 0.50693 -0.00000 0.00000
										}
									}
								}
								JOINT LThumb
								{
									OFFSET 0 0 0
									CHANNELS 3 Zrotation Yrotation Xrotation
									End Site
									{
										OFFSET 0.51467 -0.00000 0.51467
									}
								}
							}
						}
					}
				}
				JOINT RightShoulder
				{
					OFFSET 0 0 0
					CHANNELS 3 Zrotation Yrotation Xrotation
					JOINT RightArm
					{
						OFFSET -3.33565 1.14597 0.05047
						CHANNELS 3 Zrotation Yrotation Xrotation
						JOINT RightForeArm
						{
							OFFSET -5.49020 -0.00000 0.00000
							CHANNELS 3 Zrotation Yrotation Xrotation
							JOINT RightHand
							{
								OFFSET -3.20659 -0.00000 -0.00000
								CHANNELS 3 Zrotation Yrotation Xrotation
								JOINT RightFingerBase
								{
									OFFSET 0 0 0
									CHANNELS 3 Zrotation Yrotation Xrotation
									JOINT RightHandIndex1
									{
										OFFSET -0.69188 -0.00000 0.00000
										CHANNELS 3 Zrotation Yrotation Xrotation
										End Site
										{
											OFFSET -0.55781 -0.00000 0.00000
										}
									}
								}
								JOINT RThumb
								{
									OFFSET 0 0 0
									CHANNELS 3 Zrotation Yrotation Xrotation
									End Site
									{
										OFFSET -0.56633 -0.00000 0.56633
									}
								}
							}
						}
					}
				}
			}
		}
	}
}
MOTION
Frames: 10
Frame Time: .0083333
-1.3736 17.7132 6.9632 -11.0562 4.1180 18.0081 0.0000 0.0000 0.0000 1.5472 -43.3856 1.2028 0.0095 -0.6285 -1.7271 -6.5576 42.9585 -36.7529 0.1864 2.7810 7.6696 0.0000 0.0000 0.0000 28.7939 23.8381 -10.0168 -0.0205 -0.9235 2.5384 0.7239 -16.5082 -13.8571 -0.0270 -1.0613 2.9176 -0.8563 0.8882 19.8534 -2.5953 0.5673 -4.3251 -2.6972 0.1524 -16.2355 5.3754 1.8729 -16.7341 -1.3744 1.4861 7.4311 -1.1588 0.7955 4.9874 -0.0000 0.0000 0.0000 -97.6802 -72.8864 62.6837 69.8603 -58.4105 -42.6516 -0.0000 0.0000 -34.1549 11.1027 -6.2076 -1.2156 -7.1250 0.0000 -0.0000 -11.5154 23.6724 6.0412 -0.0000 0.0000 0.0000 95.9033 51.7349 69.9838 -76.8424 59.3356 -48.6306 0.0000 -0.0000 -20.6848 -27.2232 -40.6084 18.5127 7.1250 -0.0000 -0.0000 15.1270 -73.4645 -10.2572
-1.3580 17.7128 7.0028 -10.8646 4.3275 17.0942 0.0000 0.0000 0.0000 0.4684 -41.8825 1.7067 0.0070 -0.5411 -1.4868 -6.2982 41.8841 -34.5268 0.1273 2.2997 6.3346 0.0000 0.0000 0.0000 28.9814 23.3245 -8.9967 -0.0245 -1.0113 2.7800 0.7081 -16.5741 -14.3707 -0.0224 -0.9662 2.6559 -0.9897 0.9928 18.8526 -1.8581 0.8068 -4.6004 -1.8283 0.3294 -15.9534 5.0501 1.4743 -16.5647 -2.2723 1.1423 8.4328 -1.4234 0.5625 5.2674 0.0000 0.0000 0.0000 -101.7254 -73.8361 69.1989 72.3316 -58.7870 -44.7610 -0.0000 0.0000 -34.3466 10.9106 -6.4780 -1.2459 -7.1250 0.0000 -0.0000 -11.6358 23.4071 6.1796 0.0000 0.0000 0.0000 94.3921 50.6667 65.9338 -81.2804 59.7107 -52.4559 0.0000 -0.0000 -19.0977 -25.7020 -39.6727 17.0806 7.1250 -0.0000 -0.0000 15.8281 -72.0639 -10.2594
-1.3403 17.7094 7.0454 -10.5726 4.6784 16.2268 0.0000 0.0000 0.0000 -0.5682 -40.4387 2.0466 0.0047 -0.4422 -1.2150 -6.0121 40.7301 -32.1692 0.0680 1.6829 4.6301 0.0000 0.0000 0.0000 29.0170 22.9351 -7.9351 -0.0272 -1.0655 2.9289 0.7105 -16.8548 -15.0595 -0.0297 -1.1127 3.0589 -0.8953 0.9819 17.8571 -1.3107 0.9148 -4.8996 -1.2710 0.4106 -15.7038 4.7245 1.0592 -16.4521 -3.0812 0.7788 9.5628 -1.6657 0.3211 5.5945 -0.0000 -0.0000 0.0000 -106.0355 -74.6174 76.0627 74.5676 -59.0807 -46.6764 -0.0000 0.0000 -33.7002 11.0191 -7.1963 -1.3974 -7.1250 0.0000 -0.0000 -11.5067 22.6879 6.3024 -0.0000 -0.0000 0.0000 90.4165 52.1230 63.3077 -86.4634 59.9527 -56.9377 0.0000 -0.0000 -20.5327 -27.5112 -40.2986 18.6160 7.1250 -0.0000 -0.0000 14.2113 -73.2772 -9.5723
-1.3218 17.7042 7.0915 -10.2394 4.9801 15.3722 0.0000 0.0000 0.0000 -1.7334 -39.3725 2.6683 0.0030 -0.3527 -0.9690 -5.7437 39.7564 -30.4140 0.0308 1.1328 3.1144 0.0000 0.0000 0.0000 29.0056 22.6006 -6.7947 -0.0283 -1.0853 2.9834 0.7146 -17.1428 -15.7100 -0.0371 -1.2427 3.4168 -0.8371 0.9491 16.9718 -0.8748 0.9604 -5.3045 -0.8100 0.4579 -15.6492 4.2985 0.6560 -15.9224 -3.4701 0.4223 10.4630 -1.7587 0.1085 5.7782 -0.0000 0.0000 0.0000 -110.4496 -75.1031 82.9770 76.4634 -59.2962 -48.3046 -0.0000 0.0000 -32.4444 11.5722 -8.0229 -1.6370 -7.1250 0.0000 -0.0000 -11.0561 21.8447 6.2631 -0.0000 0.0000 0.0000 88.1202 51.8887 59.9985 -90.9675 59.9965 -60.8379 0.0000 -0.0000 -19.9783 -27.2785 -40.0125 18.3429 7.1250 -0.0000 -0.0000 14.1084 -72.9271 -9.3955
-1.3045 17.6971 7.1414 -9.9563 5.2051 14.5635 0.0000 0.0000 0.0000 -2.9181 -38.6834 3.5986 0.0021 -0.2956 -0.8121 -5.5110 39.0190 -29.4099 0.0134 0.7461 2.0506 0.0000 0.0000 0.0000 29.0584 22.2868 -5.6284 -0.0279 -1.0788 2.9657 0.7176 -17.3922 -16.2649 -0.0390 -1.2740 3.5031 -0.6329 0.8059 16.1841 -0.6886 0.8485 -5.8730 -0.6759 0.4008 -15.8456 4.2347 0.3314 -14.8091 -3.5417 0.0635 11.0103 -1.8046 -0.0631 5.7523 0.0000 -0.0000 0.0000 -113.6731 -75.2538 88.8601 78.1848 -59.4659 -49.7861 -0.0000 0.0000 -31.7032 12.0345 -8.0774 -1.7158 -7.1250 0.0000 -0.0000 -10.7205 21.7740 6.0838 0.0000 -0.0000 0.0000 86.6176 51.3990 57.2065 -95.4693 59.8867 -64.7348 0.0000 -0.0000 -19.4938 -26.9944 -39.8769 18.0870 7.1250 -0.0000 -0.0000 14.3131 -72.7006 -9.4631
-1.2869 17.6892 7.1944 -9.7674 5.4737 13.8474 0.0000 0.0000 0.0000 -3.9379 -38.2681 4.5994 0.0018 -0.2768 -0.7605 -5.3233 38.4664 -28.8447 0.0059 0.4965 1.3644 0.0000 0.0000 0.0000 29.1977 22.0411 -4.5088 -0.0269 -1.0591 2.9115 0.7283 -17.7102 -16.8418 -0.0390 -1.2750 3.5057 -0.5480 0.6389 15.1679 -0.3635 0.6972 -6.3830 -0.3017 0.3489 -15.8283 4.5210 0.0542 -13.7427 -4.2849 -0.2091 11.5231 -2.1112 -0.2293 5.7229 0.0000 -0.0000 0.0000 -117.2189 -75.2623 94.5788 80.0162 -59.6200 -51.3648 -0.0000 0.0000 -31.9366 11.7323 -7.7380 -1.6017 -7.1250 0.0000 -0.0000 -10.9573 22.1247 6.1338 0.0000 -0.0000 0.0000 84.8177 51.1227 54.5086 -100.0163 59.6175 -68.6632 0.0000 -0.0000 -19.4852 -26.8383 -39.9707 18.0061 7.1250 -0.0000 -0.0000 14.6784 -72.7344 -9.7183
-1.2688 17.6816 7.2511 -9.6434 5.8105 13.1886 0.0000 0.0000 0.0000 -4.7721 -37.8111 5.4772 0.0019 -0.2786 -0.7653 -5.1728 37.9487 -28.1034 0.0008 0.1862 0.5117 0.0000 0.0000 0.0000 29.4018 21.8643 -3.3730 -0.0247 -1.0154 2.7913 0.7447 -18.1161 -17.5252 -0.0443 -1.3577 3.7336 -0.3596 0.5709 14.2847 0.0506 0.7122 -6.9422 0.0627 0.3687 -15.9523 4.3599 -0.3434 -13.1487 -5.0289 -0.5562 12.5306 -2.3591 -0.4552 5.9212 0.0000 -0.0000 0.0000 -122.2708 -74.8246 101.3621 81.9482 -59.7536 -53.0327 -0.0000 0.0000 -32.6379 10.9022 -7.6419 -1.4672 -7.1250 0.0000 -0.0000 -11.5617 22.2469 6.4528 0.0000 -0.0000 0.0000 82.1588 50.6492 51.1346 -104.6599 59.1722 -72.6605 0.0000 -0.0000 -19.7340 -26.8465 -40.1039 18.0587 7.1250 -0.0000 -0.0000 14.8706 -72.8618 -9.8881
-1.2498 17.6742 7.3103 -9.5218 6.1906 12.5846 0.0000 0.0000 0.0000 -5.4929 -37.2612 6.1997 0.0020 -0.2894 -0.7952 -5.0284 37.3951 -27.1628 0.0012 -0.2264 -0.6220 0.0000 0.0000 0.0000 29.5912 21.7056 -2.2025 -0.0203 -0.9202 2.5292 0.7608 -18.5571 -18.2823 -0.0593 -1.5712 4.3221 -0.1417 0.4724 13.2502 0.3945 0.6776 -7.4456 0.3453 0.3581 -15.9082 4.2866 -0.7051 -12.6764 -5.6917 -0.8798 13.5994 -2.5975 -0.6632 6.1580 0.0000 0.0000 0.0000 -127.1589 -74.2858 108.0144 83.8264 -59.8555 -54.6561 -0.0000 0.0000 -32.9640 10.4835 -7.7467 -1.4288 -7.1250 0.0000 -0.0000 -11.8562 22.1552 6.6496 0.0000 0.0000 0.0000 79.6227 50.0146 47.7101 -109.2573 58.5513 -76.5962 0.0000 -0.0000 -19.9654 -26.7629 -40.0651 17.9840 7.1250 -0.0000 -0.0000 14.9305 -72.7963 -9.9073
-1.2302 17.6676 7.3715 -9.3688 6.6022 12.0799 0.0000 0.0000 0.0000 -6.1602 -36.8301 6.8172 0.0021 -0.2972 -0.8167 -4.8529 36.8175 -26.5040 0.0055 -0.4804 -1.3200 0.0000 0.0000 0.0000 29.7125 21.5629 -1.0962 -0.0153 -0.7980 2.1931 0.7859 -19.0402 -18.9983 -0.0689 -1.6932 4.6585 -0.1538 0.3106 12.0861 0.7220 0.5034 -7.9163 0.7731 0.3066 -15.7389 4.6772 -0.9448 -12.1895 -6.5694 -1.0880 14.5421 -2.9728 -0.8097 6.3515 0.0000 -0.0000 0.0000 -131.2231 -73.7067 113.8641 85.6154 -59.9272 -56.2038 -0.0000 0.0000 -32.4626 10.5564 -7.9674 -1.4797 -7.1250 0.0000 -0.0000 -11.7893 21.9333 6.6715 0.0000 -0.0000 0.0000 77.3602 49.3301 44.5826 -113.5817 57.7908 -80.2709 0.0000 -0.0000 -19.7633 -26.8679 -39.7766 17.9594 7.1250 -0.0000 -0.0000 14.3443 -72.5625 -9.4411
-1.2103 17.6631 7.4349 -9.1619 7.0224 11.6566 0.0000 0.0000 0.0000 -6.9184 -36.6611 7.4957 0.0021 -0.2978 -0.8181 -4.7390 36.4356 -26.0774 0.0116 -0.6965 -1.9140 0.0000 0.0000 0.0000 29.7608 21.4556 -0.0456 -0.0107 -0.6688 1.8379 0.8249 -19.5760 -19.6480 -0.0756 -1.7736 4.8804 -0.5302 0.0571 10.7021 1.2432 0.1608 -8.2541 1.6546 0.2272 -15.2612 4.8379 -1.0694 -11.7570 -7.4098 -1.1029 15.2538 -3.2812 -0.8731 6.4928 0.0000 -0.0000 0.0000 -135.0187 -73.2398 118.9984 87.2117 -59.9706 -57.5855 -0.0000 0.0000 -31.5205 10.7683 -8.2788 -1.5687 -7.1250 0.0000 -0.0000 -11.6177 21.6165 6.6558 0.0000 -0.0000 0.0000 75.0896 48.8853 41.9572 -117.7425 56.8821 -83.7742 0.0000 -0.0000 -19.1574 -27.3388 -39.5503 18.2216 7.1250 -0.0000 -0.0000 13.3375 -72.5116 -8.7568
